HIERARCHY
ROOT Hips
{
	OFFSET 0.00000 0.00000 0.00000
	CHANNELS 6 Xposition Yposition Zposition Zrotation Yrotation Xrotation 
	JOINT LHipJoint
	{
		OFFSET 0 0 0
		CHANNELS 3 Zrotation Yrotation Xrotation
		JOINT LeftHip
		{
			OFFSET 1.58161 -1.81893 0.78828
			CHANNELS 3 Zrotation Yrotation Xrotation
			JOINT LeftKnee
			{
				OFFSET 2.53374 -6.96141 0.00000
				CHANNELS 3 Zrotation Yrotation Xrotation
				JOINT LeftAnkle
				{
					OFFSET 2.63509 -7.23986 0.00000
					CHANNELS 3 Zrotation Yrotation Xrotation
					JOINT LeftToe
					{
						OFFSET 0.14115 -0.38781 2.05350
						CHANNELS 3 Zrotation Yrotation Xrotation
						End Site
						{
							OFFSET 0.00000 -0.00000 1.05543
						}
					}
				}
			}
		}
	}
	JOINT RHipJoint
	{
		OFFSET 0 0 0
		CHANNELS 3 Zrotation Yrotation Xrotation
		JOINT RightHip
		{
			OFFSET -1.11138 -1.81893 0.78828
			CHANNELS 3 Zrotation Yrotation Xrotation
			JOINT RightKnee
			{
				OFFSET -2.58392 -7.09926 0.00000
				CHANNELS 3 Zrotation Yrotation Xrotation
				JOINT RightAnkle
				{
					OFFSET -2.66423 -7.31992 0.00000
					CHANNELS 3 Zrotation Yrotation Xrotation
					JOINT RightToe
					{
						OFFSET -0.18831 -0.51739 2.12114
						CHANNELS 3 Zrotation Yrotation Xrotation
						End Site
						{
							OFFSET -0.00000 -0.00000 1.09845
						}
					}
				}
			}
		}
	}
	JOINT lowerback
	{
		OFFSET 0 0 0
		CHANNELS 3 Zrotation Yrotation Xrotation
		JOINT Chest
		{
			OFFSET -0.01511 1.97958 -0.08829
			CHANNELS 3 Zrotation Yrotation Xrotation
			JOINT Chest2
			{
				OFFSET 0.08344 1.97334 -0.04330
				CHANNELS 3 Zrotation Yrotation Xrotation
				JOINT lowerneck
				{
					OFFSET 0 0 0
					CHANNELS 3 Zrotation Yrotation Xrotation
					JOINT Neck
					{
						OFFSET 0.00559 1.76246 0.31246
						CHANNELS 3 Zrotation Yrotation Xrotation
						JOINT Head
						{
							OFFSET -0.07011 1.80354 -0.30524
							CHANNELS 3 Zrotation Yrotation Xrotation
							End Site
							{
								OFFSET -0.02385 1.83547 -0.13906
							}
						}
					}
				}
				JOINT LeftCollar
				{
					OFFSET 0 0 0
					CHANNELS 3 Zrotation Yrotation Xrotation
					JOINT LeftShoulder
					{
						OFFSET 3.20667 1.30156 -0.60240
CHANNELS 3 Zrotation Xrotation Yrotation
						JOINT LeftElbow
						{
OFFSET 0 -4.956630 0.000000
CHANNELS 3 Zrotation Xrotation Yrotation
							JOINT LeftWrist
							{
OFFSET 0 -3.381770 0.000000
CHANNELS 3 Zrotation Xrotation Yrotation
								JOINT lhand
								{
									OFFSET 0 0 0
CHANNELS 3 Zrotation Xrotation Yrotation
									JOINT LFingers
									{
OFFSET 0 -0.662910 0.000000
CHANNELS 3 Zrotation Xrotation Yrotation
										End Site
										{
OFFSET 0 -0.534450 0.000000
										}
									}
								}
								JOINT LThumb
								{
OFFSET 0 0.000000 0.000000
CHANNELS 3 Zrotation Xrotation Yrotation
									End Site
									{
OFFSET 0 -0.542610 0.542610
									}
								}
							}
						}
					}
				}
				JOINT RightCollar
				{
					OFFSET 0 0 0
					CHANNELS 3 Zrotation Yrotation Xrotation
					JOINT RightShoulder
					{
						OFFSET -3.06877 1.34672 -0.60964
CHANNELS 3 Zrotation Xrotation Yrotation
						JOINT RightElbow
						{
OFFSET 0 -5.083650 0.000000
CHANNELS 3 Zrotation Xrotation Yrotation
							JOINT RightWrist
							{
OFFSET 0 -3.359840 0.000000
CHANNELS 3 Zrotation Xrotation Yrotation
								JOINT rhand
								{
									OFFSET 0 0 0
CHANNELS 3 Zrotation Xrotation Yrotation
									JOINT RFingers
									{
OFFSET 0 -0.820760 0.000000
CHANNELS 3 Zrotation Xrotation Yrotation
										End Site
										{
OFFSET 0 -0.661720 0.000000
										}
									}
								}
								JOINT RThumb
								{
OFFSET 0 0.000000 0.000000
CHANNELS 3 Zrotation Xrotation Yrotation
									End Site
									{
OFFSET 0 -0.671820 0.671820
									}
								}
							}
						}
					}
				}
			}
		}
	}
}
MOTION
Frames: 9
Frame Time: .0083333
-5.9756 17.8970 0.3208 -94.8441 85.2202 -77.6043 0.0000 0.0000 0.0000 -4.3445 -0.4247 -29.9591 1.9505 8.7622 25.0543 0.2598 -3.5222 -9.0604 1.1885 -6.9181 -19.4729 0.0000 0.0000 0.0000 10.4283 8.9413 -26.3424 -1.4089 -7.5076 21.2282 -0.0010 -6.3076 -9.0255 -0.0484 -1.4205 3.9066 -1.1223 1.8038 -1.1790 3.7961 2.3981 3.4247 4.6748 1.1277 3.9887 1.7566 -1.6985 -14.6367 -3.3919 0.0942 39.0215 -1.6332 0.3841 16.4688 -0.0000 -0.0000 0.0000 -13.7781 -21.7515 -82.5359 12.5613 -20.6411 2.2963 30.3751 -14.1719 -64.5126 0.0 0.0 0.0 -7.1250 0.0 0.0 170.4002 7.8791 -8.3138 -0.0000 -0.0000 0.0000 13.8509 -23.1152 32.2914 -10.9185 -18.1632 -1.7504 -11.701 -33.8033 7.8504 0.0 0.0 0.0 7.1250 0.0 -0.0 12.8882 37.703 2.3623
-5.9774 17.8961 0.3158 -96.1505 85.2028 -78.8681 0.0000 0.0000 0.0000 -4.3026 -0.5802 -30.0057 1.9534 8.7683 25.0731 0.2596 -3.5072 -9.0570 1.1746 -6.8792 -19.3579 0.0000 0.0000 0.0000 10.4597 8.8323 -26.4333 -1.4130 -7.5181 21.2598 -0.0010 -6.3185 -9.0411 -0.0458 -1.3808 3.7973 -1.0540 1.7667 -1.2285 3.8216 2.3458 3.4078 4.6624 1.1034 4.0053 1.7286 -1.7072 -14.6233 -3.4157 0.1027 39.0288 -1.6370 0.3810 16.4699 0.0000 -0.0000 0.0000 -13.7543 -21.7375 -82.398 12.5748 -20.6611 2.3011 31.5136 -13.2494 -64.6109 0.0 0.0 0.0 -7.1250 0.0 0.0 170.6529 8.1888 -8.0309 0.0000 -0.0000 0.0000 13.8726 -22.9839 32.5361 -11.0938 -18.4319 -1.8055 -12.3846 -35.2147 7.8066 0.0 0.0 0.0 7.1250 0.0 -0.0 12.3081 37.7049 2.2514
-5.9783 17.8953 0.3158 -95.8980 85.1827 -78.6109 0.0000 0.0000 0.0000 -4.2939 -0.5171 -30.0361 1.9545 8.7706 25.0804 0.2589 -3.5401 -9.0440 1.1548 -6.8228 -19.1913 0.0000 0.0000 0.0000 10.4804 8.8746 -26.4503 -1.4160 -7.5258 21.2828 0.0128 -6.4291 -8.8320 -0.0357 -1.2200 3.3542 -1.0551 1.7925 -1.2524 3.8350 2.3800 3.4058 4.6795 1.1203 4.0133 1.7629 -1.7466 -14.6266 -3.5040 0.0694 39.0391 -1.6882 0.3611 16.4743 0.0000 0.0000 0.0000 -13.7315 -21.7238 -82.2971 12.5905 -20.6842 2.3066 32.21 -12.6079 -64.8169 0.0 0.0 0.0 -7.1250 0.0 0.0 170.7530 8.5131 -7.8823 0.0000 0.0000 0.0000 13.9139 -22.8953 32.4188 -11.2277 -18.6364 -1.848 -12.418 -36.0958 7.9285 0.0 0.0 0.0 7.1250 0.0 -0.0 12.3039 37.8288 2.2124
-5.9801 17.8939 0.3164 -95.1986 85.1985 -77.9219 0.0000 0.0000 0.0000 -4.3298 -0.4357 -30.0502 1.9563 8.7744 25.0921 0.2577 -3.5253 -9.0241 1.1415 -6.7847 -19.0790 0.0000 0.0000 0.0000 10.4407 9.0012 -26.4264 -1.4180 -7.5308 21.2979 -0.0794 -5.8896 -10.3404 -0.7250 -5.4407 15.1699 -1.0633 1.8339 -1.2551 3.8081 2.4358 3.4148 4.6586 1.1478 4.0200 1.8205 -1.7636 -14.6288 -3.5665 0.0463 39.0124 -1.7298 0.3508 16.4590 0.0000 0.0000 0.0000 -13.6526 -21.7258 -82.2732 12.6136 -20.7185 2.3148 32.4498 -12.3309 -65.0575 0.0 0.0 0.0 -7.1250 0.0 0.0 170.7253 8.7767 -7.8574 0.0000 0.0000 0.0000 13.9761 -22.8899 32.1067 -11.2746 -18.708 -1.8631 -12.219 -36.3439 8.0733 0.0 0.0 0.0 7.1250 0.0 -0.0 12.4991 37.9598 2.2079
-5.9816 17.8934 0.3151 -95.2873 85.2386 -77.9985 0.0000 0.0000 0.0000 -4.3590 -0.5167 -30.0535 1.9589 8.7799 25.1092 0.2575 -3.4700 -9.0188 1.1382 -6.7753 -19.0512 0.0000 0.0000 0.0000 10.3825 9.0203 -26.4400 -1.4183 -7.5317 21.3004 -0.0051 -6.3289 -9.1623 -0.6062 4.9836 -13.8618 -1.0656 1.8405 -1.2910 3.7841 2.4444 3.4230 4.6369 1.1515 4.0490 1.8225 -1.7526 -14.6330 -3.5720 0.0599 38.9776 -1.7296 0.3547 16.4422 -0.0000 -0.0000 0.0000 -13.5582 -21.7365 -82.2814 12.6658 -20.7956 2.3333 32.8657 -11.9853 -65.2066 0.0 0.0 0.0 -7.1250 0.0 0.0 170.7714 8.994 -7.7767 -0.0000 -0.0000 0.0000 13.9895 -22.8835 32.098 -11.3216 -18.7796 -1.8782 -12.324 -36.6826 8.2365 0.0 0.0 0.0 7.1250 0.0 -0.0 12.4435 38.1297 2.1448
-5.9825 17.8929 0.3127 -96.0060 85.2199 -78.7020 0.0000 0.0000 0.0000 -4.3251 -0.6016 -30.0815 1.9622 8.7869 25.1310 0.2583 -3.4821 -9.0331 1.1409 -6.7831 -19.0745 0.0000 0.0000 0.0000 10.3964 8.9736 -26.4615 -1.4185 -7.5321 21.3016 -0.0108 -6.3758 -9.3711 -0.1040 2.0800 -5.7267 -1.0387 1.8258 -1.3028 3.8169 2.4236 3.4174 4.6555 1.1419 4.0514 1.7830 -1.7304 -14.6485 -3.5627 0.1034 38.9794 -1.7109 0.3681 16.4494 0.0000 -0.0000 0.0000 -13.5563 -21.733 -82.2032 12.6925 -20.8351 2.3428 33.0017 -11.842 -65.207 0.0 0.0 0.0 -7.1250 0.0 0.0 170.8039 9.0221 -7.7434 0.0000 -0.0000 0.0000 13.9348 -22.8397 32.1718 -11.3829 -18.8728 -1.8979 -12.0825 -37.016 8.5698 0.0 0.0 0.0 7.1250 0.0 -0.0 12.7142 38.4449 2.0928
-5.9831 17.8924 0.3109 -96.3789 85.1728 -79.0826 0.0000 0.0000 0.0000 -4.2947 -0.5547 -30.1178 1.9650 8.7927 25.1489 0.2587 -3.5394 -9.0422 1.1571 -6.8293 -19.2106 0.0000 0.0000 0.0000 10.4441 8.9596 -26.4516 -1.4188 -7.5330 21.3043 -0.0000 -6.4290 -9.1727 -0.0710 1.7194 -4.7309 -0.9830 1.8362 -1.2913 3.8399 2.4359 3.4216 4.6483 1.1498 4.0495 1.8155 -1.7134 -14.6568 -3.5784 0.1258 38.9801 -1.7198 0.3804 16.4527 -0.0000 -0.0000 0.0000 -13.5577 -21.729 -82.0289 12.6812 -20.8183 2.3388 31.9331 -12.5437 -65.1612 0.0 0.0 0.0 -7.1250 0.0 0.0 170.5617 8.7667 -8.0018 -0.0000 -0.0000 0.0000 13.923 -22.8064 32.0037 -11.4473 -18.9706 -1.9188 -11.619 -37.2439 8.8531 0.0 0.0 0.0 7.1250 0.0 -0.0 13.1641 38.6926 2.0881
-5.9836 17.8919 0.3109 -96.2955 85.1858 -78.9935 0.0000 0.0000 0.0000 -4.3303 -0.4921 -30.1535 1.9669 8.7968 25.1618 0.2580 -3.5742 -9.0308 1.1761 -6.8834 -19.3703 0.0000 0.0000 0.0000 10.4219 8.9798 -26.4589 -1.4193 -7.5342 21.3080 -0.0154 -6.2761 -9.3490 -0.3397 3.7456 -10.3621 -0.9800 1.8760 -1.3270 3.8255 2.4888 3.4308 4.6357 1.1759 4.0755 1.8328 -1.7259 -14.6429 -3.5603 0.0956 38.9748 -1.7197 0.3738 16.4449 -0.0000 -0.0000 0.0000 -13.4489 -21.714 -82.0872 12.7611 -20.9362 2.3672 31.0379 -13.3396 -65.2278 0.0 0.0 0.0 -7.1250 0.0 0.0 170.3191 8.6531 -8.2358 -0.0000 -0.0000 0.0000 13.947 -22.8049 31.7634 -11.5107 -19.0668 -1.9395 -11.561 -37.6647 8.8878 0.0 0.0 0.0 7.1250 0.0 -0.0 13.2204 38.7228 2.0874
-5.9844 17.8920 0.3105 -96.6254 85.2088 -79.3375 0.0000 0.0000 0.0000 -4.3604 -0.4898 -30.1495 1.9663 8.7956 25.1580 0.2570 -3.6268 -9.0149 1.1685 -6.8619 -19.3069 0.0000 0.0000 0.0000 10.4007 8.9408 -26.4573 -1.4205 -7.5373 21.3173 -0.0228 -6.2658 -9.5176 -0.1518 2.5103 -6.9181 -0.9885 1.9019 -1.3223 3.8231 2.5238 3.4297 4.6392 1.1933 4.0684 1.7725 -1.7506 -14.6240 -3.4811 0.0503 38.9828 -1.6814 0.3585 16.4428 -0.0000 -0.0000 0.0000 -13.3212 -21.6715 -82.3108 12.9020 -21.1435 2.4178 31.615 -13.0621 -65.4387 0.0 0.0 0.0 -7.1250 0.0 0.0 170.3853 8.9536 -8.1194 -0.0000 -0.0000 0.0000 13.9223 -22.7649 31.6522 -11.5830 -19.1763 -1.9631 -11.7382 -38.3641 8.822 0.0 0.0 0.0 7.1250 0.0 -0.0 13.0570 38.6706 2.0776
